#!OML:ASF X:\für Bonn\!DataBase\2005_08_10_Bjorn_Final\c3d\bjorn.ASF
:FULLY-SPECIFIED
:DEGREES
63
root -11.3531 18.3663 1.13568 380.142 95.0566 386.127
lowerback 4.64322 -1.87785 10.039
upperback 17.1841 -1.84057 2.58844
thorax 16.5475 0.876391 -2.56392
lowerneck 11.448 2.83306 2.69741
upperneck -5.26084 3.293 -14.3489
head -3.17123 2.36145 -5.04855
rclavicle -1.27222e-014 -3.18055e-015
rhumerus -21.9454 -20.3249 -82.377
rradius 44.4589
rwrist 2.22498
rhand -7.97697 13.2191
rfingers 7.12502
rthumb 17.931 -15.9743
lclavicle -1.27222e-014 -3.18055e-015
lhumerus -22.497 -2.69271 82.9959
lradius 49.4234
lwrist -12.0523
lhand -41.084 -11.2054
lfingers 7.12502
lthumb -14.0126 18.3023
rfemur -1.30181 -2.41006 20.9914
rtibia 39.0745
rfoot -27.769 11.7846
rtoes -11.4134
lfemur -31.1716 6.23053 -7.68783
ltibia 27.4607
lfoot 13.494 1.77083
ltoes -9.41601
64
root -11.2856 18.3608 1.11181 381.827 95.0695 387.718
lowerback 4.51593 -1.83427 10.0482
upperback 17.1518 -1.80651 2.59464
thorax 16.5926 0.890744 -2.56179
lowerneck 11.4564 2.78739 2.68912
upperneck -5.2481 3.23705 -14.2089
head -3.17554 2.32522 -5.00026
rclavicle 7.15625e-015 2.22639e-014
rhumerus -21.959 -20.3601 -82.3481
rradius 44.3664
rwrist 2.19523
rhand -7.99716 13.2019
rfingers 7.12502
rthumb 17.9116 -15.9933
lclavicle 7.15625e-015 2.22639e-014
lhumerus -22.4328 -2.84432 82.9853
lradius 49.368
lwrist -12.0082
lhand -41.0749 -11.2114
lfingers 7.12502
lthumb -14.0038 18.2969
rfemur -1.05388 -2.38269 21.0661
rtibia 38.8516
rfoot -27.8396 11.8684
rtoes -11.2714
lfemur -30.9653 6.01653 -7.39674
ltibia 27.1027
lfoot 13.6536 1.49448
ltoes -9.25087
65
root -11.2167 18.3581 1.08732 383.026 95.0668 388.817
lowerback 4.38018 -1.79773 10.0052
upperback 17.1241 -1.78022 2.58679
thorax 16.6465 0.895664 -2.54784
lowerneck 11.4468 2.74389 2.61579
upperneck -5.25112 3.17557 -14.0275
head -3.18362 2.28562 -4.9278
rclavicle -1.19271e-014 -3.02153e-014
rhumerus -21.9944 -20.3138 -82.3255
rradius 44.3236
rwrist 2.06879
rhand -8.00183 13.1721
rfingers 7.12502
rthumb 17.9071 -16.0235
lclavicle -1.19271e-014 -3.02153e-014
lhumerus -22.4094 -2.91531 82.9818
lradius 49.3607
lwrist -11.9989
lhand -41.0164 -11.2024
lfingers 7.12502
lthumb -13.9474 18.3098
rfemur -0.78264 -2.35072 21.0924
rtibia 38.594
rfoot -27.9593 11.8648
rtoes -11.6122
lfemur -30.7732 5.79855 -7.16543
ltibia 26.7903
lfoot 13.8625 1.21815
ltoes -9.37826
66
root -11.1479 18.3559 1.0614 384.503 95.0767 390.198
lowerback 4.25964 -1.76114 9.9906
upperback 17.0881 -1.75331 2.58462
thorax 16.6804 0.903134 -2.54311
lowerneck 11.4982 2.68802 2.51061
upperneck -5.29387 3.09056 -13.7881
head -3.21677 2.23534 -4.83318
rclavicle 7.95139e-016 -2.54444e-014
rhumerus -22.0626 -20.2755 -82.296
rradius 44.272
rwrist 1.97041
rhand -7.98189 13.1745
rfingers 7.12502
rthumb 17.9263 -16.0194
lclavicle 7.95139e-016 -2.54444e-014
lhumerus -22.4023 -2.98032 82.9892
lradius 49.352
lwrist -11.9742
lhand -40.9855 -11.2529
lfingers 7.12502
lthumb -13.9177 18.2613
rfemur -0.508503 -2.30427 21.1427
rtibia 38.3195
rfoot -28.0497 11.9262
rtoes -11.5796
lfemur -30.5885 5.56826 -6.90943
ltibia 26.505
lfoot 14.1349 0.960141
ltoes -9.65781
67
root -11.0787 18.3538 1.03469 386.106 95.1101 391.684
lowerback 4.14057 -1.73155 10.003
upperback 17.0565 -1.73546 2.57462
thorax 16.7185 0.911602 -2.5624
lowerneck 11.426 2.64245 2.33843
upperneck -5.29306 3.022 -13.4336
head -3.21696 2.18224 -4.68806
rclavicle -5.56597e-015 -3.97569e-015
rhumerus -22.1206 -20.2603 -82.3074
rradius 44.2721
rwrist 1.93626
rhand -7.99013 13.173
rfingers 7.12502
rthumb 17.9183 -16.0216
lclavicle -5.56597e-015 -3.97569e-015
lhumerus -22.3675 -3.06227 82.9719
lradius 49.32
lwrist -11.9842
lhand -40.9458 -11.305
lfingers 7.12502
lthumb -13.8794 18.2118
rfemur -0.242965 -2.2632 21.2199
rtibia 38.0305
rfoot -28.1958 11.891
rtoes -11.9183
lfemur -30.4439 5.3704 -6.65503
ltibia 26.2437
lfoot 14.4222 0.659156
ltoes -10.2342
